<?xml version="1.0" standalone="no"?><!DOCTYPE svg PUBLIC "-//W3C//DTD SVG 1.1//EN" "http://www.w3.org/Graphics/SVG/1.1/DTD/svg11.dtd"><svg t="1552294983332" class="icon" style="" viewBox="0 0 1024 1024" version="1.1" xmlns="http://www.w3.org/2000/svg" p-id="3985" xmlns:xlink="http://www.w3.org/1999/xlink" width="200" height="200"><defs><style type="text/css"></style></defs><path d="M832 672c0 179.2-160 211.2-256 211.2H294.4V134.4h256c38.4 0 243.2 0 243.2 185.6 0 153.6-102.4 166.4-128 172.8 25.6 6.4 166.4 25.6 166.4 179.2z m-147.2-339.2c0-96-96-108.8-140.8-108.8H403.2v230.4h140.8c25.6 0 140.8-6.4 140.8-121.6z m38.4 332.8c0-128-140.8-128-160-128H403.2v262.4h160c19.2 0 160-6.4 160-134.4z" p-id="3986" fill="#666666"></path></svg>