<?xml version="1.0" standalone="no"?><!DOCTYPE svg PUBLIC "-//W3C//DTD SVG 1.1//EN" "http://www.w3.org/Graphics/SVG/1.1/DTD/svg11.dtd"><svg t="1552295368960" class="icon" style="" viewBox="0 0 1024 1024" version="1.1" xmlns="http://www.w3.org/2000/svg" p-id="4126" xmlns:xlink="http://www.w3.org/1999/xlink" width="200" height="200"><defs><style type="text/css"></style></defs><path d="M591.32088492 404.65814994c0-20.69240512 6.89746837-37.93607606 27.58987349-37.93607605 20.69240512 0 27.58987349 17.24367092 27.58987349 37.93607605v375.91202223c0 20.69240512-6.89746837 37.93607606-27.58987349 37.93607605-20.69240512 0-27.58987349-17.24367092-27.58987349-37.93607605V404.65814994z m-220.71898521 0c0-20.69240512 6.89746837-37.93607606 27.58987351-37.93607605 20.69240512 0 27.58987349 17.24367092 27.58987349 37.93607605v375.91202223c0 20.69240512-6.89746837 37.93607606-27.58987349 37.93607605-20.69240512 0-27.58987349-17.24367092-27.58987351-37.93607605V404.65814994z m-193.12911306-34.48734185c-20.69240512 0-37.93607606 17.24367092-37.93607468 37.93607604v410.39936409c0 82.7696191 65.52594956 148.29556865 148.29556865 148.29556867h441.4379704c82.7696191 0 148.29556865-65.52594956 148.29556865-148.29556867v-413.84809828c0-20.69240512-17.24367092-37.93607606-37.93607468-37.93607605-20.69240512 0-20.69240512 17.24367092-20.69240512 37.93607605v410.3993641c0 41.38481023-51.7310128 93.11582166-93.11582305 93.11582166H287.83228062c-41.38481023 0-93.11582166-51.7310128-93.11582304-93.11582166V404.65814994c0-20.69240512 0-34.48734188-17.24367093-34.48734185z m237.9626575-151.74430285V132.20815194h182.78290914v89.66708748l-182.78290914-3.44873418z m241.41139032 0V146.00308731C656.84683447 104.61827844 622.35949261 70.13093657 580.97468374 70.13093657h-144.84683447C394.74303903 70.13093657 360.25569716 104.61827844 360.25569716 146.00308731v75.87215211H101.60063591C80.90823079 221.87523942 63.66455984 239.11891035 63.66455984 259.81131548c0 20.69240512 17.24367092 24.14113931 37.93607607 24.14113792h810.45252562c20.69240512 0 37.93607606-3.4487342 37.93607606-24.14113792s-17.24367092-37.93607606-37.93607606-37.93607606h-255.20632706z" fill="#6B6B6B" p-id="4127"></path><path d="M822.11747655 805.93051882l1.07496572-1.28995888c1.28995885 0.85997257 2.57991771 1.71994515 3.65488344 2.79491087-0.42998629 0.64497943-0.85997257 1.07496571-1.28995888 1.28995877-1.28995885-1.07496571-2.57991771-1.93493828-3.43989028-2.79491076z m0.64497942 13.1145815c0.85997257-2.57991771 1.50495199-5.37482848 2.14993145-8.16973934 0.64497943 0.21499314 1.28995885 0.42998629 1.71994511 0.64497944-0.64497943 2.57991771-1.28995885 5.37482848-1.93493826 7.95474616l-1.9349383-0.42998626z m0-18.48941009l1.07496575-1.07496569c0.85997257 0.64497943 2.14993142 1.71994515 3.65488339 3.00990399l-1.28995884 1.28995885c-1.28995885-1.50495199-2.57991771-2.57991771-3.4398903-3.22489715z m4.72984914 5.80481485h6.87978047v-1.504952H828.99725712v-1.28995886h5.58982161v-1.50495199h-6.44979419v-1.28995887h6.23480105v-1.93493818h1.71994515v1.93493818h6.44979417v1.28995888h-6.44979417v1.50495198h6.01980792v1.28995886H836.09203074v1.504952h6.87978045v1.28995886H827.4923051v-1.28995886zM830.50220901 819.47508658h-1.5049519v-10.74965702h12.46960208V816.89516891c0 1.50495199-0.64497943 2.14993142-2.1499314 2.14993141H835.66204443c0-0.42998629-0.21499314-1.07496571-0.21499314-1.71994514 1.28995885 0 2.36492457 0.21499314 3.22489714 0.2149931 0.85997257 0 1.28995885-0.42998629 1.28995878-1.07496558v-1.07496572H830.50220901v4.0848696z m9.24470505-9.24470503H830.50220901v1.50495201h9.24470505v-1.50495201z m-9.24470505 4.29986286h9.24470505v-1.50495202H830.50220901v1.50495202zM851.14155055 804.42556683l1.28995882 1.28995882c-2.79491084 2.14993142-5.37482848 3.86987657-7.73975304 5.15983532-0.42998629-0.64497943-0.85997257-1.07496571-1.28995886-1.28995885 3.00990399-1.71994515 5.37482848-3.22489713 7.73975305-5.15983529z m-6.87978049 12.68459519h8.81471874v-5.5898216h-6.66478733v-1.50495201h15.04951978v1.50495201h-6.66478731v5.5898216h8.81471874v1.50495199h-19.34938262v-1.50495199z m0.21499312-15.47950604h9.02971192c-0.21499314-0.64497943-0.64497943-1.28995885-1.28995887-2.14993144l1.50495199-0.85997249c0.64497943 0.85997257 1.07496571 1.71994515 1.50495199 2.36492447l-0.85997256 0.42998629h8.81471874v4.08486971h-1.71994514v-2.57991773h-15.6944992v2.57991773h-1.71994512v-3.86987654z m12.25460898 2.79491085c3.00990399 1.71994515 5.58982161 3.43989027 7.73975308 4.94484216l-1.28995883 1.50495198c-2.14993142-1.71994515-4.5148559-3.43989027-7.5247599-5.15983532l1.07496564-1.28995882z" fill="#6B6B6B" p-id="4128"></path></svg>