<?xml version="1.0" standalone="no"?><!DOCTYPE svg PUBLIC "-//W3C//DTD SVG 1.1//EN" "http://www.w3.org/Graphics/SVG/1.1/DTD/svg11.dtd"><svg t="1552295904481" class="icon" style="" viewBox="0 0 1024 1024" version="1.1" xmlns="http://www.w3.org/2000/svg" p-id="4383" xmlns:xlink="http://www.w3.org/1999/xlink" width="200" height="200"><defs><style type="text/css"></style></defs><path d="M432.81706384 50.76146574L78.37915914 955.70930754h113.11848023l98.0360162-252.6312725h414.76776082l98.03601619 252.6312725h113.11848022L553.47677609 50.76146574H432.81706384zM493.14691997 163.87994598h3.770616l169.67772033 452.4739209H319.69858361L493.14691997 163.87994598z" fill="#666666" p-id="4384"></path><path d="M776.97660234 878.9858005h21.99130409v-2.86843095l9.08336468-5.73686193H785.58189522V867.03400482h28.20623784v3.82457465l-10.99565206 7.1710774v1.43421545h20.55708861v3.34650283H802.792481V890.93759618c0 3.8245746-1.91228731 5.73686193-5.73686192 5.73686194H789.88454171c0-0.95614366-0.47807183-2.39035914-0.47807186-4.30264646 2.39035914 0.47807183 4.78071829 0.47807183 6.69300561 0.47807184 1.91228731 0 2.86843098-0.95614366 2.86843097-3.34650279v-7.64914921H776.97660234v-2.868431z m1.91228731-21.03516042h21.51323226c-0.95614366-1.43421548-2.39035914-3.34650279-4.30264648-5.25879007l3.34650281-1.91228732c1.91228731 1.91228731 3.34650279 4.30264644 4.78071826 5.73686192l-2.39035916 1.43421547h19.60094495v9.56143656h-3.82457461v-6.21493375H782.23539244v6.21493375h-3.34650279v-9.56143656zM824.30571327 873.72701041c4.30264644-6.6930056 7.64914924-14.34215485 10.03950836-22.4693759l3.34650282 0.95614368c-1.43421548 3.8245746-2.39035914 7.64914924-4.30264647 10.995652v33.46502791h-3.3465028v-26.77202232l-4.30264643 7.17107743c-0.47807183-0.95614366-0.95614366-1.91228731-1.43421548-3.3465028z m46.8510391 11.47372383c-0.95614366 1.43421548-1.91228731 2.39035914-2.86843096 3.34650281-6.21493375-4.78071829-10.99565203-12.90793935-13.86408302-24.3816632v19.60094494h6.69300558v3.34650277h-6.69300558v9.56143654h-3.3465028v-9.56143655h-6.69300557v-3.34650276h6.69300557v-19.60094494c-2.86843098 10.51758021-7.64914924 19.12287311-14.34215481 24.85973502-0.95614366-0.95614366-1.43421548-1.91228731-2.39035915-2.86843097 6.21493375-5.25879009 10.51758021-12.90793935 13.38601118-21.99130405h-10.99565203v-3.34650276h14.34215481v-9.56143658h3.3465028v9.56143658h14.82022666v3.34650276H857.29266937c3.34650279 9.56143653 8.12722107 16.73251397 13.86408301 21.03516039z" fill="#666666" p-id="4385"></path></svg>