<?xml version="1.0" standalone="no"?><!DOCTYPE svg PUBLIC "-//W3C//DTD SVG 1.1//EN" "http://www.w3.org/Graphics/SVG/1.1/DTD/svg11.dtd"><svg t="1552296930121" class="icon" style="" viewBox="0 0 1024 1024" version="1.1" xmlns="http://www.w3.org/2000/svg" p-id="4558" xmlns:xlink="http://www.w3.org/1999/xlink" width="200" height="200"><defs><style type="text/css"></style></defs><path d="M262.4 192L0 832h64l83.2-198.4h307.2L531.2 832h64L332.8 192H262.4zM166.4 582.4l134.4-332.8 134.4 332.8H166.4z m832 153.6V550.4c6.4-102.4-44.8-153.6-166.4-153.6-108.8 0-166.4 38.4-185.6 121.6l51.2 12.8c12.8-64 57.6-96 134.4-89.6 83.2-6.4 121.6 32 115.2 102.4-6.4 19.2-64 32-160 44.8-102.4 12.8-153.6 57.6-153.6 134.4 0 70.4 44.8 108.8 134.4 108.8 89.6 0 147.2-32 179.2-83.2 0 32 6.4 57.6 19.2 76.8h57.6c-19.2-25.6-25.6-51.2-25.6-89.6z m-51.2-83.2c-6.4 89.6-64 134.4-160 140.8-70.4 0-102.4-25.6-102.4-76.8-6.4-57.6 38.4-89.6 128-96 70.4-6.4 115.2-25.6 134.4-44.8v76.8z" p-id="4559" fill="#666666"></path></svg>