<?xml version="1.0" standalone="no"?><!DOCTYPE svg PUBLIC "-//W3C//DTD SVG 1.1//EN" "http://www.w3.org/Graphics/SVG/1.1/DTD/svg11.dtd"><svg t="1552295503030" class="icon" style="" viewBox="0 0 1024 1024" version="1.1" xmlns="http://www.w3.org/2000/svg" p-id="4237" xmlns:xlink="http://www.w3.org/1999/xlink" width="200" height="200"><defs><style type="text/css"></style></defs><path d="M947.2 256l-512 0c-14.1312 0-25.6-11.4688-25.6-25.6s11.4688-25.6 25.6-25.6l512 0c14.1312 0 25.6 11.4688 25.6 25.6s-11.4688 25.6-25.6 25.6z" p-id="4238" fill="#666666"></path><path d="M947.2 460.8l-512 0c-14.1312 0-25.6-11.4688-25.6-25.6s11.4688-25.6 25.6-25.6l512 0c14.1312 0 25.6 11.4688 25.6 25.6s-11.4688 25.6-25.6 25.6z" p-id="4239" fill="#666666"></path><path d="M947.2 665.6l-512 0c-14.1312 0-25.6-11.4688-25.6-25.6s11.4688-25.6 25.6-25.6l512 0c14.1312 0 25.6 11.4688 25.6 25.6s-11.4688 25.6-25.6 25.6z" p-id="4240" fill="#666666"></path><path d="M947.2 870.4l-512 0c-14.1312 0-25.6-11.4688-25.6-25.6s11.4688-25.6 25.6-25.6l512 0c14.1312 0 25.6 11.4688 25.6 25.6s-11.4688 25.6-25.6 25.6z" p-id="4241" fill="#666666"></path><path d="M263.4752 698.6752l-58.6752 58.6752 0-439.6032 58.6752 58.6752c5.0176 5.0176 11.5712 7.4752 18.1248 7.4752s13.1072-2.5088 18.1248-7.4752c9.984-9.984 9.984-26.2144 0-36.1984l-102.4-102.4c-9.984-9.984-26.2144-9.984-36.1984 0l-102.4 102.4c-9.984 9.984-9.984 26.2144 0 36.1984s26.2144 9.984 36.1984 0l58.6752-58.6752 0 439.6032-58.6752-58.6752c-9.984-9.984-26.2144-9.984-36.1984 0s-9.984 26.2144 0 36.1984l102.4 102.4c5.0176 5.0176 11.5712 7.4752 18.1248 7.4752s13.1072-2.5088 18.1248-7.4752l102.4-102.4c9.984-9.984 9.984-26.2144 0-36.1984s-26.2144-9.984-36.1984 0z" p-id="4242" fill="#666666"></path></svg>