<?xml version="1.0" standalone="no"?><!DOCTYPE svg PUBLIC "-//W3C//DTD SVG 1.1//EN" "http://www.w3.org/Graphics/SVG/1.1/DTD/svg11.dtd"><svg t="1653018400536" class="icon" viewBox="0 0 1024 1024" version="1.1" xmlns="http://www.w3.org/2000/svg" p-id="6211" xmlns:xlink="http://www.w3.org/1999/xlink" width="200" height="200"><defs><style type="text/css">@font-face { font-family: feedback-iconfont; src: url("//at.alicdn.com/t/font_1031158_u69w8yhxdu.woff2?t=1630033759944") format("woff2"), url("//at.alicdn.com/t/font_1031158_u69w8yhxdu.woff?t=1630033759944") format("woff"), url("//at.alicdn.com/t/font_1031158_u69w8yhxdu.ttf?t=1630033759944") format("truetype"); }
</style></defs><path d="M37.44 266.02666667h175.68V743.46666667c0 47.04 38.29333333 85.33333333 85.33333333 85.33333333h503.57333334c47.04 0 85.33333333-38.29333333 85.33333333-85.33333333v-53.33333334c0-11.73333333-9.6-21.33333333-21.33333333-21.33333333h-60.37333334V490.66666667l129.06666667-167.68c0.42666667-0.64 0.85333333-1.17333333 1.28-1.81333334l15.25333333-19.84c0.53333333-0.53333333 1.06666667-1.17333333 1.6-1.81333333l31.36-40.85333333c7.46666667-9.70666667 10.66666667-21.76 9.06666667-33.92-1.6-12.16-7.78666667-22.93333333-17.6-30.50666667L947.2 172.37333333c-9.70666667-7.46666667-21.76-10.77333333-34.02666667-9.06666666-12.16 1.6-22.93333333 7.89333333-30.29333333 17.49333333l-30.08 39.25333333c-0.42666667 0.53333333-0.96 1.06666667-1.38666667 1.6l-18.13333333 23.57333334c-0.42666667 0.64-0.85333333 1.28-1.28 1.81333333l-26.45333333 34.45333333V149.12c0-18.66666667-5.86666667-36.26666667-17.06666667-51.2-13.97333333-18.66666667-35.2-30.93333333-58.24-33.6h-0.21333333c-3.2-0.32-6.50666667-0.53333333-9.70666667-0.53333333H234.56l-98.45333333-0.53333334h-0.21333334c-66.02666667 0-119.78666667 53.76-119.78666666 119.78666667v61.65333333c0 11.73333333 9.6 21.33333333 21.33333333 21.33333334zM844.69333333 711.46666667v32c0 23.57333333-19.09333333 42.66666667-42.66666666 42.66666666H373.12c7.25333333-12.58666667 11.41333333-27.09333333 11.41333333-42.66666666v-32h460.16z m-194.13333333-63.78666667l58.98666667-34.77333333c0.53333333-0.32 1.06666667-0.64 1.6-1.06666667 0.10666667 0 0.10666667-0.10666667 0.21333333-0.10666667 0.21333333-0.21333333 0.53333333-0.32 0.74666667-0.53333333 0.10666667-0.10666667 0.21333333-0.21333333 0.42666666-0.32s0.32-0.32 0.53333334-0.42666667l0.53333333-0.53333333 0.32-0.32c0.21333333-0.21333333 0.42666667-0.53333333 0.74666667-0.74666667l0.10666666-0.10666666c0.32-0.42666667 0.74666667-0.85333333 1.06666667-1.28l47.25333333-61.44V668.8H615.04l35.52-21.12z m-15.14666667-40.53333333l8-28.26666667 17.38666667 13.33333333-25.38666667 14.93333334z m281.49333334-400.42666667c0.53333333-0.64 1.17333333-1.06666667 2.02666666-1.17333333 0.64-0.10666667 1.49333333 0 2.34666667 0.64l28.48 21.86666666c0.96 0.74666667 1.17333333 1.6 1.28 2.13333334 0.10666667 0.85333333-0.10666667 1.6-0.64 2.34666666l-18.34666667 23.89333334-33.49333333-25.81333334 18.34666667-23.89333333z m-49.49333334 64.42666667c0-0.10666667 0.10666667-0.10666667 0.10666667-0.21333334 0.32-0.42666667 0.53333333-0.74666667 0.85333333-1.17333333 0.10666667-0.21333333 0.21333333-0.32 0.32-0.53333333l3.62666667-4.8 33.49333333 25.81333333-5.01333333 6.61333333c-0.42666667 0.64-0.85333333 1.17333333-1.28 1.81333334L694.93333333 564.58666667l-33.49333333-25.81333334 205.97333333-267.62666666zM234.34666667 106.45333333h485.97333333c1.70666667 0 3.30666667 0.10666667 5.01333333 0.32h0.21333334c11.41333333 1.38666667 21.97333333 7.46666667 28.90666666 16.85333334 5.54666667 7.36 8.53333333 16.21333333 8.53333334 25.49333333v187.84l-60.26666667 78.29333333c-1.6-0.42666667-3.30666667-0.64-5.12-0.64H331.94666667c-11.73333333 0-21.33333333 9.6-21.33333334 21.33333334s9.6 21.33333333 21.33333334 21.33333333h338.45333333L615.46666667 528.53333333c-2.13333333 2.34666667-3.62666667 5.22666667-4.58666667 8.32l-18.66666667 65.92-12.37333333 44.05333334c-2.24 8 0.32 16.53333333 6.61333333 21.86666666H363.2c-11.73333333 0-21.33333333 9.6-21.33333333 21.33333334v53.33333333c0 23.57333333-19.09333333 42.66666667-42.66666667 42.66666667h-0.74666667v0.10666666c-23.57333333 0-42.66666667-19.09333333-42.66666666-42.66666666V199.46666667c0-0.64 0-1.38666667-0.10666667-2.02666667v-14.4c0-29.12-10.45333333-55.78666667-27.73333333-76.58666667h6.4zM58.77333333 183.04c0-42.56 34.56-77.12 77.12-77.12s77.12 34.56 77.12 77.12v40.32H58.77333333v-40.32z" fill="#666666" p-id="6212"></path><path d="M331.94666667 564.05333333h149.97333333c11.73333333 0 21.33333333-9.6 21.33333333-21.33333333s-9.6-21.33333333-21.33333333-21.33333333H331.94666667c-11.73333333 0-21.33333333 9.6-21.33333334 21.33333333s9.6 21.33333333 21.33333334 21.33333333z" fill="#666666" p-id="6213"></path><path d="M978.88 335.25333333l-8.10666667 10.56c-0.74666667 1.06666667-1.49333333 2.13333333-2.24 3.09333334l-20.69333333 26.98666666C961.49333333 419.73333333 968.53333333 465.70666667 968.53333333 512c0 61.65333333-12.05333333 121.38666667-35.84 177.70666667-0.85333333 2.02666667-1.70666667 4.05333333-2.66666666 6.08V743.46666667c0 70.61333333-57.38666667 128-128 128h-8.53333334c-31.68 24.85333333-66.45333333 45.33333333-103.78666666 61.22666666C633.38666667 956.48 573.65333333 968.53333333 512 968.53333333c-19.41333333 0-39.25333333-1.28-58.98666667-3.73333333-0.21333333 0-0.42666667-0.10666667-0.74666666-0.10666667-26.66666667-3.52-53.54666667-9.49333333-79.78666667-17.81333333-45.44-14.50666667-88.21333333-36.16-127.14666667-64.21333333-38.4-27.73333333-72.21333333-61.01333333-100.37333333-98.98666667C86.4 704.64 55.46666667 610.66666667 55.46666667 512c0-61.65333333 12.05333333-121.38666667 35.84-177.70666667 3.62666667-8.64 7.57333333-17.17333333 11.73333333-25.6H56c-1.38666667 2.98666667-2.66666667 5.97333333-3.94666667 8.96C26.02666667 379.2 12.8 444.58666667 12.8 512c0 107.94666667 33.92 210.66666667 97.92 297.06666667 30.82666667 41.6 67.73333333 77.97333333 109.76 108.26666666 42.56 30.61333333 89.28 54.29333333 139.09333333 70.18666667 28.90666667 9.17333333 58.45333333 15.78666667 87.89333334 19.62666667 0.21333333 0 0.53333333 0.10666667 0.85333333 0.10666666 21.33333333 2.66666667 42.66666667 4.05333333 63.68 4.05333334 67.41333333 0 132.8-13.22666667 194.34666667-39.25333334C765.76 946.88 819.2 910.93333333 865.06666667 865.06666667s81.81333333-99.2 106.98666666-158.72c26.02666667-61.54666667 39.25333333-126.93333333 39.25333334-194.34666667-0.10666667-60.58666667-11.09333333-120.53333333-32.42666667-176.74666667z" fill="#666666" p-id="6214"></path><path d="M331.94666667 350.50666667H697.6c11.73333333 0 21.33333333-9.6 21.33333333-21.33333334s-9.6-21.33333333-21.33333333-21.33333333H331.94666667c-11.73333333 0-21.33333333 9.6-21.33333334 21.33333333s9.6 21.33333333 21.33333334 21.33333334zM561.06666667 243.73333333h136.53333333c11.73333333 0 21.33333333-9.6 21.33333333-21.33333333s-9.6-21.33333333-21.33333333-21.33333333H561.06666667c-11.73333333 0-21.33333333 9.6-21.33333334 21.33333333s9.6 21.33333333 21.33333334 21.33333333z" fill="#666666" p-id="6215"></path></svg>